<svg height="512" viewBox="0 0 100 100" width="512" xmlns="http://www.w3.org/2000/svg" xmlns:xlink="http://www.w3.org/1999/xlink"><linearGradient id="New_Gradient_Swatch_5" gradientUnits="userSpaceOnUse" x1="20.988" x2="81.75" y1="80.188" y2="19.427"><stop offset="0" stop-color="#0a75a1"/><stop offset=".362" stop-color="#074b98"/><stop offset=".722" stop-color="#04218f"/><stop offset="1" stop-color="#020088"/></linearGradient><g id="object"><g id="_09" data-name="09"><path d="m26.419 25.7a1 1 0 1 1 1 1 1 1 0 0 1 -1-1zm4.2 1h13.4a1 1 0 0 0 0-2h-13.395a1 1 0 0 0 0 2zm-3.2 4.341a1 1 0 1 0 -1-1 1 1 0 0 0 1 .996zm3.2 0h16.637a1 1 0 0 0 0-2h-16.632a1 1 0 0 0 0 2zm-3.2 4.341a1 1 0 1 0 -1-1 1 1 0 0 0 1 .996zm27.047-1a1 1 0 0 0 -1-1h-22.842a1 1 0 0 0 0 2h22.842a1 1 0 0 0 1-1.005zm-8.932 15.618a4.466 4.466 0 1 1 4.466 4.466 4.47 4.47 0 0 1 -4.466-4.466zm2 0a2.466 2.466 0 1 0 2.466-2.466 2.469 2.469 0 0 0 -2.466 2.466zm-8.026 0a10.492 10.492 0 1 1 10.492 10.492 10.5 10.5 0 0 1 -10.492-10.492zm2 0a8.492 8.492 0 1 0 8.492-8.492 8.5 8.5 0 0 0 -8.492 8.492zm38.154 26.619a1 1 0 0 1 .008 1.414 10 10 0 0 1 -7.163 2.989h-1.3v8.378a1 1 0 0 1 -1 1h-2.207v3.12a1 1 0 1 1 -2 0v-3.12h-2.2a1 1 0 0 1 -1-1v-8.38h-2.016v8.38a1 1 0 0 1 -1 1h-2.2v3.12a1 1 0 0 1 -2 0v-3.12h-2.2a1 1 0 0 1 -1-1v-8.38h-2.021v8.38a1 1 0 0 1 -1 1h-2.2v3.12a1 1 0 0 1 -2 0v-3.12h-2.2a1 1 0 0 1 -1-1v-8.38h-2.021v8.38a1 1 0 0 1 -1 1h-2.2v3.12a1 1 0 0 1 -2 0v-3.12h-2.21a1 1 0 0 1 -1-1v-8.38h-1.3a10.088 10.088 0 0 1 -10.079-10.074v-1.3h-8.379a1 1 0 0 1 -1-1v-2.207h-3.121a1 1 0 0 1 0-2h3.121v-2.2a1 1 0 0 1 1-1h8.379v-2.016h-8.379a1 1 0 0 1 -1-1v-2.2h-3.121a1 1 0 1 1 0-2h3.121v-2.2a1 1 0 0 1 1-1h8.379v-2.023h-8.379a1 1 0 0 1 -1-1v-2.2h-3.121a1 1 0 1 1 0-2h3.121v-2.2a1 1 0 0 1 1-1h8.379v-2.019h-8.379a1 1 0 0 1 -1-1v-2.2h-3.121a1 1 0 1 1 0-2h3.121v-2.21a1 1 0 0 1 1-1h8.379v-1.3a10.089 10.089 0 0 1 10.077-10.079h1.3v-8.379a1 1 0 0 1 1-1h2.205v-3.121a1 1 0 1 1 2 0v3.121h2.2a1 1 0 0 1 1 1v8.379h2.011v-8.379a1 1 0 0 1 1-1h2.2v-3.121a1 1 0 1 1 2 0v3.121h2.2a1 1 0 0 1 1 1v8.379h2.011v-8.379a1 1 0 0 1 1-1h2.2v-3.121a1 1 0 1 1 2 0v3.121h2.2a1 1 0 0 1 1 1v8.379h2.043v-8.379a1 1 0 0 1 1-1h2.2v-3.121a1 1 0 1 1 2 0v3.121h2.2a1 1 0 0 1 1 1v8.379h1.3a10.089 10.089 0 0 1 10.084 10.077v14.831a1 1 0 0 1 -2 0v-14.831a8.086 8.086 0 0 0 -8.077-8.077h-42.277a8.086 8.086 0 0 0 -8.077 8.077v42.277a8.086 8.086 0 0 0 8.077 8.076h42.277a8.016 8.016 0 0 0 5.741-2.4 1 1 0 0 1 1.414-.003zm-54.509-9.525a1 1 0 0 0 1-1v-15.122a1 1 0 0 0 -2 0v15.122a1 1 0 0 0 1 1zm5.077 9.928a1 1 0 1 0 0-2 4.081 4.081 0 0 1 -4.077-4.076 1 1 0 0 0 -2 0 6.084 6.084 0 0 0 6.077 6.076zm53.07-18.939-1.624-3.29-1.625 3.291a1 1 0 0 1 -.753.547l-3.632.528 2.634 2.561a1 1 0 0 1 .287.885l-.62 3.617 3.249-1.707a1 1 0 0 1 .931 0l3.247 1.707-.62-3.617a1 1 0 0 1 .287-.885l2.629-2.561-3.632-.528a1 1 0 0 1 -.758-.548zm11.876 3.028a13.5 13.5 0 1 1 -13.5-13.5 13.515 13.515 0 0 1 13.501 13.5zm-4.392-2.96a1 1 0 0 0 -.807-.68l-5.117-.744-2.288-4.636a1 1 0 0 0 -1.793 0l-2.289 4.636-5.116.744a1 1 0 0 0 -.555 1.706l3.7 3.609-.874 5.095a1 1 0 0 0 1.455 1.055l4.577-2.406 4.575 2.406a1.012 1.012 0 0 0 .466.114 1 1 0 0 0 .985-1.169l-.874-5.095 3.7-3.609a1 1 0 0 0 .256-1.026z" fill="url(#New_Gradient_Swatch_5)"/></g></g></svg>