<svg id="Layer_1" enable-background="new 0 0 512 512" height="512" viewBox="0 0 512 512" width="512" xmlns="http://www.w3.org/2000/svg"><g clip-rule="evenodd" fill-rule="evenodd"><path d="m256.023 280.571c32.27 0 58.496-26.269 58.496-58.53s-26.227-58.531-58.496-58.531c-32.288 0-58.543 26.242-58.543 58.531s26.255 58.53 58.543 58.53zm-32.348-249.917c-29 22.298-53.583 50.079-72.168 81.587l-2.008 3.403-3.775-1.167c-18-5.563-35.694-12.785-52.104-22.076l-5.87-3.324 4.888-4.65c35.079-33.37 79.347-55.326 127.231-62.68l19.229-2.953zm29.3-12.945-7.724 5.019c-35.005 22.747-64.59 53.22-86.359 88.836l-3.544 5.797 6.589 1.659c7.049 1.775 14.148 3.337 21.293 4.676l1.71.32 1.54-.81c19.13-10.067 40.162-15.83 61.752-16.932l4.745-.242v-88.323zm13.725 5.017c35.037 22.736 64.629 53.204 86.409 88.838l3.543 5.797-6.588 1.659c-7.049 1.775-14.148 3.337-21.293 4.676l-1.71.32-1.54-.81c-19.15-10.078-40.186-15.831-61.798-16.932l-4.745-.242v-88.316zm25.431-.978-19.229-2.953 15.422 11.858c29 22.298 53.583 50.079 72.169 81.587l2.008 3.403 3.775-1.167c17.982-5.558 35.68-12.775 52.062-22.079l5.854-3.325-4.874-4.643c-35.046-33.383-79.321-55.33-127.187-62.681zm127.188 405.821c-35 33.367-79.277 55.304-127.092 62.663l-19.329 2.975 15.53-11.887c22.6-17.298 42.401-37.771 58.88-60.985 4.72-6.65 9.141-13.512 13.276-20.54l2.007-3.411 3.78 1.17c17.954 5.554 35.597 12.774 51.963 22.047l5.861 3.321zm-160.341 66.711 7.716-4.992c35.242-22.803 64.855-52.925 86.657-88.802l3.51-5.776-6.551-1.666c-7.123-1.811-14.311-3.373-21.532-4.737l-1.713-.324-1.543.812c-19.15 10.078-40.186 15.831-61.798 16.931l-4.745.242v88.312zm-13.722-4.994c-35.211-22.814-64.816-52.94-86.607-88.8l-3.51-5.776 6.551-1.666c7.126-1.812 14.311-3.382 21.538-4.738l1.71-.321 1.54.81c19.131 10.068 40.165 15.821 61.754 16.931l4.743.244v88.316zm-25.483.947 19.33 2.975-15.531-11.887c-22.6-17.298-42.401-37.772-58.881-60.985-4.721-6.65-9.141-13.512-13.276-20.54l-2.006-3.411-3.78 1.17c-17.971 5.559-35.611 12.784-52.004 22.044l-5.879 3.32 4.891 4.655c35.036 33.343 79.305 55.297 127.136 62.659zm-30.361-210.494c-1.769-.744-3.535-1.496-5.299-2.251-6.981-2.987-10.97-9.919-10.108-17.454l.011-.092c.251-1.886.464-3.776.701-5.664 1.944-15.483 1.816-16.395-5.322-30.28-.884-1.718-1.782-3.428-2.653-5.153-3.426-6.784-2.006-14.695 3.543-19.884 1.4-1.31 2.796-2.625 4.2-3.931 11.428-10.622 11.926-11.4 15.378-26.624.427-1.884.836-3.771 1.283-5.652 1.757-7.387 7.875-12.542 15.465-12.955 1.922-.105 3.844-.205 5.766-.301 15.602-.777 16.454-1.101 28.91-10.524 1.54-1.165 3.088-2.318 4.633-3.475 6.071-4.545 14.089-4.545 20.16 0 1.547 1.159 3.099 2.311 4.639 3.48 12.426 9.431 13.32 9.743 28.903 10.519 1.907.095 3.813.197 5.718.301 7.614.415 13.706 5.548 15.465 12.956.447 1.882.902 3.764 1.329 5.65 3.452 15.225 3.951 16.002 15.379 26.624 1.405 1.305 2.8 2.621 4.2 3.931 5.55 5.189 6.969 13.1 3.542 19.885-.871 1.725-1.769 3.434-2.652 5.152-7.138 13.885-7.266 14.797-5.322 30.28.237 1.888.45 3.778.701 5.664l.011.092c.862 7.535-3.127 14.468-10.108 17.454-1.778.761-3.564 1.501-5.346 2.251-14.393 6.057-15.055 6.677-23.536 19.779-1.028 1.589-2.065 3.171-3.075 4.771l-.054.084c-4.175 6.335-11.724 9.084-18.991 6.884-1.832-.555-3.658-1.124-5.487-1.689-4.504-1.391-10.631-3.497-15.375-3.497-4.783 0-10.882 2.095-15.422 3.497-1.828.565-3.655 1.134-5.487 1.689-7.268 2.201-14.815-.543-18.959-6.908-1.05-1.613-2.115-3.216-3.161-4.832-8.49-13.118-9.168-13.712-23.58-19.777zm21.708 27.914c-1.062-1.631-2.134-3.255-3.188-4.891-1.682-2.608-3.377-5.33-5.234-7.815l-5.007-6.698-25.18 54.068 26.761-4.681c1.249-.219 2.504.336 3.142 1.439l13.602 23.517 20.697-44.309-7.504-.307c-7.382-.302-14.05-4.122-18.089-10.323zm89.764-.006c-3.257 4.985-8.233 8.486-14.047 9.797l-5.883 1.327 14.569 33.683 14.314-23.077c.659-1.063 1.897-1.609 3.126-1.357l26.605 5.452-19.93-46.361-4.867 2.797c-.84.483-1.632 1.024-2.374 1.648-3.079 2.589-6.149 7.808-8.359 11.194-1.063 1.624-2.093 3.271-3.154 4.897z" fill="#9bc9ff"/><path d="m220.346 218.172c3.106-3.12 8.19-3.12 11.296 0l12.097 12.109 36.902-33.45c3.248-2.969 8.331-2.719 11.297.55 2.965 3.271 2.683 8.331-.565 11.3l-42.503 38.571c-1.506 1.39-3.436 2.079-5.366 2.079-2.071 0-4.095-.79-5.648-2.34l-17.51-17.5c-3.154-3.13-3.154-8.19 0-11.319zm35.677-43.66c-26.217 0-47.54 21.33-47.54 47.529 0 26.211 21.322 47.53 47.54 47.53 26.17 0 47.492-21.319 47.492-47.53.001-26.199-21.321-47.529-47.492-47.529zm-63.542 47.528c0 35.031 28.477 63.53 63.543 63.53 35.019 0 63.496-28.499 63.496-63.53 0-35.03-28.477-63.53-63.496-63.53-35.067 0-63.543 28.501-63.543 63.53zm56.435-82.539c-1.742 1.279-3.248 2.431-4.613 3.46-13.415 10.151-14.874 10.69-31.677 11.53-1.695.081-3.577.18-5.742.3-5.366.291-9.602 3.88-10.873 9.12-.471 2.082-.894 3.931-1.271 5.6-3.718 16.39-4.518 17.75-16.85 29.181-1.224 1.17-2.636 2.46-4.189 3.92-3.954 3.69-4.895 9.169-2.495 13.979.988 1.901 1.836 3.6 2.636 5.12 7.672 14.959 7.955 16.509 5.836 33.189-.188 1.692-.424 3.582-.706 5.702-.612 5.348 2.165 10.169 7.107 12.289 1.977.84 3.719 1.579 5.272 2.239 15.533 6.531 16.709 7.54 25.841 21.67.941 1.431 1.977 3.03 3.154 4.821 2.918 4.499 8.143 6.409 13.32 4.85 2.024-.621 3.86-1.18 5.46-1.68 8.049-2.48 12.473-3.72 16.898-3.72 4.378 0 8.802 1.239 16.851 3.72 1.6.5 3.436 1.059 5.46 1.68 5.177 1.559 10.402-.351 13.368-4.85 1.13-1.791 2.165-3.39 3.106-4.821 9.131-14.13 10.308-15.139 25.794-21.67 1.6-.66 3.342-1.399 5.319-2.239 4.942-2.12 7.719-6.941 7.107-12.289-.282-2.12-.518-4.01-.706-5.702-2.118-16.68-1.835-18.23 5.837-33.189.8-1.521 1.647-3.22 2.636-5.12 2.401-4.81 1.459-10.29-2.495-13.979-1.553-1.46-2.965-2.751-4.189-3.92-12.332-11.431-13.132-12.791-16.85-29.181-.376-1.669-.8-3.519-1.318-5.6-1.224-5.249-5.46-8.829-10.873-9.12-2.118-.12-4.001-.219-5.695-.3-16.804-.84-18.31-1.378-31.677-11.53-1.365-1.029-2.871-2.181-4.613-3.46-4.285-3.231-9.887-3.231-14.17 0zm65.049 183.62c-3.295-.68-6.637.77-8.378 3.62l-9.273 14.95-8.378-19.37c6.872-1.55 13.038-5.691 17.133-11.94 1.177-1.821 2.212-3.45 3.154-4.901 3.718-5.69 5.554-8.55 7.39-10.1.471-.389.988-.761 1.647-1.14l13.932 32.41zm-98.421 28.669-8.802-15.218c-1.695-2.902-4.989-4.431-8.331-3.861l-17.321 3.03 17.604-37.8c1.271 1.701 2.824 4.1 5.037 7.531.941 1.46 2.024 3.089 3.201 4.909 5.036 7.72 13.273 12.23 22.075 12.591zm19.11-221.578c-5.413 4.089-8.096 6.139-10.402 6.969-2.26.82-5.648.991-12.379 1.331-1.742.079-3.671.18-5.884.3-12.426.69-22.687 9.309-25.558 21.449-.471 2.11-.894 4.001-1.271 5.691-1.506 6.6-2.259 9.91-3.483 12.01-1.224 2.091-3.719 4.4-8.661 9.009-1.271 1.181-2.683 2.491-4.283 3.972-9.085 8.529-11.391 21.739-5.79 32.86.988 1.94 1.835 3.659 2.636 5.209 3.107 6.02 4.66 9.04 5.083 11.431.424 2.379 0 5.749-.847 12.469-.236 1.721-.471 3.64-.706 5.79-1.506 12.381 5.225 23.99 16.662 28.901 1.883.8 3.577 1.509 5.083 2.149l-24.711 53.129c-1.271 2.701-.941 5.88.894 8.241 1.789 2.37 4.754 3.53 7.719 3.019l26.923-4.709 13.744 23.65c1.459 2.47 4.095 3.979 6.919 3.979.141 0 .236-.009.377-.009 2.965-.14 5.601-1.91 6.872-4.62l25.088-53.809c3.436-1.03 5.601-1.541 7.343-1.541 2.401 0 5.648 1 12.097 3.001.565.16 1.083.329 1.647.509l17.886 41.511c1.177 2.73 3.765 4.589 6.778 4.81.188.009.376.02.565.02 2.777 0 5.366-1.421 6.825-3.78l14.403-23.24 26.782 5.49c2.918.599 5.931-.48 7.813-2.789 1.883-2.311 2.354-5.481 1.13-8.211l-20.051-46.659c.094-.052.188-.09.329-.14 11.438-4.911 18.122-16.52 16.662-28.901-.235-2.15-.47-4.069-.706-5.79-.847-6.72-1.271-10.09-.847-12.469.423-2.39 1.977-5.411 5.083-11.431.753-1.55 1.647-3.27 2.636-5.209 5.601-11.12 3.295-24.321-5.789-32.851-1.6-1.489-3.012-2.8-4.283-3.981-4.942-4.609-7.437-6.919-8.66-9.009-1.224-2.099-1.977-5.409-3.483-12.01-.376-1.69-.8-3.58-1.318-5.691-2.824-12.141-13.085-20.76-25.559-21.449-2.165-.119-4.095-.221-5.789-.3-6.778-.34-10.167-.511-12.473-1.331-2.259-.829-4.942-2.879-10.355-6.969-1.365-1.051-2.918-2.221-4.66-3.521-9.979-7.47-23.393-7.47-33.372 0-1.741 1.299-3.294 2.468-4.659 3.52zm176.038 117.789c-.941-19.05-5.413-37.21-12.661-53.852-5.366-24.509-13.932-48.078-25.37-70.158 20.145-6.45 38.596-14.571 54.788-24.13 35.913 39.409 58.459 91.209 60.389 148.14zm-37.938 140.03c11.296-21.94 19.675-45.26 25.041-69.689 7.437-16.781 11.955-35.101 12.897-54.341h77.146c-1.93 56.93-24.476 108.729-60.389 148.14-16.146-9.55-34.597-17.66-54.695-24.11zm-21.369 35.199c-16.851 23.7-36.949 44.48-59.919 62.061 47.822-7.36 90.89-29.39 124.403-61.34-15.109-8.561-32.289-15.84-50.975-21.62-4.189 7.12-8.708 14.1-13.509 20.899zm-204.279-20.9c4.189 7.121 8.708 14.1 13.509 20.899 16.851 23.7 36.949 44.48 59.919 62.061-47.822-7.36-90.89-29.4-124.45-61.34 15.156-8.56 32.336-15.839 51.022-21.62zm-45.845-138.329h-77.098c1.93 56.93 24.476 108.729 60.389 148.14 16.145-9.55 34.596-17.66 54.694-24.11-11.296-21.95-19.675-45.26-25.04-69.701-7.438-16.769-11.956-35.089-12.945-54.329zm38.032-140.009c-11.39 22.08-19.957 45.659-25.323 70.179-7.296 16.63-11.72 34.781-12.709 53.831h-77.098c1.93-56.931 24.476-108.731 60.389-148.14 16.192 9.57 34.643 17.68 54.741 24.13zm7.908-14.292c18.827-31.918 43.774-60.21 73.427-83.01-47.869 7.351-90.937 29.39-124.544 61.36 15.156 8.581 32.383 15.86 51.117 21.65zm144.171-83.01c29.654 22.8 54.6 51.092 73.428 83.01 18.733-5.79 35.961-13.069 51.069-21.65-33.56-31.97-76.628-54.009-124.497-61.36zm36.479 92.091c-19.251-10.131-40.903-16.331-63.872-17.5v-74.36c34.69 22.511 63.637 52.521 84.865 87.251-6.873 1.73-13.839 3.269-20.993 4.609zm19.533 12.21c3.248-.77 6.496-1.561 9.649-2.41 3.201 6.011 6.166 12.129 8.896 18.361-5.742-5.781-11.955-11.12-18.545-15.951zm0 250.02c6.637-4.87 12.897-10.261 18.686-16.101-2.73 6.31-5.695 12.501-8.849 18.55-3.247-.858-6.542-1.669-9.837-2.449zm-83.406 29.709c22.97-1.169 44.621-7.369 63.872-17.5 7.201 1.36 14.309 2.91 21.228 4.67-21.087 34.7-49.893 64.42-85.101 87.201v-74.371zm-79.829-17.5c-7.249 1.36-14.309 2.91-21.228 4.67 21.087 34.7 49.893 64.42 85.053 87.201v-74.371c-22.922-1.179-44.573-7.369-63.825-17.5zm-19.533-12.209c-3.295.78-6.589 1.591-9.837 2.449-3.154-6.06-6.119-12.249-8.849-18.559 5.789 5.849 12.002 11.24 18.686 16.11zm0-250.02c-6.589 4.83-12.803 10.17-18.545 15.96 2.73-6.24 5.695-12.359 8.896-18.37 3.153.849 6.401 1.64 9.649 2.41zm83.359-29.71c-22.923 1.17-44.574 7.369-63.825 17.5-7.154-1.34-14.12-2.879-20.992-4.61 21.228-34.729 50.175-64.74 84.818-87.251v74.361zm146.949 154.72c0-76.601-62.319-138.921-138.9-138.921-76.628 0-138.947 62.32-138.947 138.921 0 76.599 62.319 138.919 138.947 138.919 76.581.001 138.9-62.319 138.9-138.919zm36.431-175.36c-46.834-46.839-109.106-72.642-175.332-72.642-66.273 0-128.545 25.803-175.378 72.642-46.833 46.84-72.627 109.12-72.627 175.361 0 66.24 25.794 128.52 72.627 175.359 46.833 46.841 109.105 72.64 175.378 72.64 66.226 0 128.498-25.8 175.331-72.64 46.833-46.839 72.627-109.119 72.627-175.359.001-66.241-25.793-128.521-72.626-175.361z" fill="#57a4ff"/></g></svg>