<svg clip-rule="evenodd" fill-rule="evenodd" height="2.667in" image-rendering="optimizeQuality" shape-rendering="geometricPrecision" text-rendering="geometricPrecision" viewBox="0 0 2667 2667" width="2.667in" xmlns="http://www.w3.org/2000/svg"><circle cx="1333" cy="1333" fill="#2e3d7c" r="1333"/><g id="Layer_x0020_1"><path d="m1810 2186h-1055c-16 0-29-13-29-29v-1648c0-16 13-29 29-29h1289c16 0 29 13 29 29v1046c0 16-13 29-29 29s-29-13-29-29v-1017h-1231v1590h1026c16 0 29 13 29 29s-13 29-29 29z" fill="#ffd80d"/><path d="m755 2186c-14 0-27-10-29-24l-245-1461c-2-9 1-17 6-24 6-6 14-10 22-10h246c16 0 29 13 29 29v1461c0 16-12 28-27 29-1 0-2 0-2 0zm-212-1461 183 1085v-1085z" fill="#ffd80d"/><g fill="#fff"><path d="m1717 733h-607c-16 0-29-13-29-29s13-29 29-29h607c16 0 29 13 29 29s-13 29-29 29z"/><path d="m1858 913h-546c-16 0-28-13-28-29s12-29 28-29h546c16 0 29 13 29 29s-13 29-29 29z"/><path d="m1858 1093h-608c-16 0-29-13-29-29s13-29 29-29h608c16 0 29 13 29 29s-13 29-29 29z"/><path d="m1858 1272h-546c-16 0-28-13-28-29s12-29 28-29h546c16 0 29 13 29 29s-13 29-29 29z"/><path d="m1554 1452h-304c-16 0-29-13-29-29s13-29 29-29h304c16 0 29 13 29 29s-13 29-29 29z"/><path d="m1389 1632h-77c-16 0-28-13-28-29s12-29 28-29h77c16 0 29 13 29 29s-13 29-29 29z"/><path d="m1371 1812h-121c-16 0-29-13-29-29s13-29 29-29h121c16 0 29 13 29 29s-13 29-29 29z"/><path d="m1371 1992h-121c-16 0-29-13-29-29s13-29 29-29h121c16 0 29 13 29 29s-13 29-29 29z"/><path d="m1004 1093c-8 0-15-4-21-9l-63-65c-11-11-11-29 0-41 12-11 30-11 41 1l43 43 136-139c11-11 29-11 41 0 11 11 11 30 0 41l-156 160c-6 5-13 9-21 9z"/><path d="m1004 1452c-8 0-15-3-21-8l-63-65c-11-11-11-30 0-41 12-11 30-11 41 0l43 44 136-139c11-11 29-12 41 0 11 11 11 29 0 41l-156 160c-6 5-13 8-21 8z"/><path d="m1004 1812c-8 0-15-3-21-9l-63-64c-11-12-11-30 0-41 12-12 30-11 41 0l43 43 136-138c11-12 29-12 41-1 11 11 11 30 0 41l-156 160c-6 6-13 9-21 9z"/></g><path d="m1811 2186c-207 0-376-168-376-375s169-376 376-376 375 169 375 376-168 375-375 375zm0-693c-175 0-318 143-318 318s143 317 318 317 317-142 317-317-142-318-317-318z" fill="#ffd80d"/><path d="m1811 2186c-100 0-176-161-176-375s76-376 176-376 175 162 175 376-75 375-175 375zm0-693c-56 0-118 136-118 318s62 317 118 317c55 0 117-135 117-317s-62-318-117-318z" fill="#ffd80d"/><path d="m1811 1986c-214 0-376-75-376-175s162-176 376-176 375 76 375 176-161 175-375 175zm0-293c-182 0-318 62-318 118 0 55 136 117 318 117s317-62 317-117c0-56-135-118-317-118z" fill="#ffd80d"/></g></svg>