<svg height="512" viewBox="0 0 64 64" width="512" xmlns="http://www.w3.org/2000/svg"><g id="Startup-3" data-name="Startup"><g fill="#9bc9ff"><path d="m57 53h-15v2a2.006 2.006 0 0 1 -2 2h-16a2.006 2.006 0 0 1 -2-2v-2h-19v4a4 4 0 0 0 4 4h50a4 4 0 0 0 4-4v-4z"/><path d="m49 19h4v-6-4h3l-5-6-5 6h3v4z"/><path d="m30 19h4v-6-4h3l-5-6-5 6h3v4z"/><path d="m23 32a9.008 9.008 0 1 0 2.78-6.5 8.974 8.974 0 0 0 -2.78 6.5z"/><path d="m11 13v6h4v-6-4h3l-5-6-5 6h3z"/></g><path d="m61 52h-3v-37a3 3 0 0 0 -3-3h-1v-2h2a1 1 0 0 0 .769-1.64l-5-6a1.036 1.036 0 0 0 -1.538 0l-5 6a1 1 0 0 0 .769 1.64h2v2h-13v-2h2a1 1 0 0 0 .769-1.64l-5-6a1.036 1.036 0 0 0 -1.538 0l-5 6a1 1 0 0 0 .769 1.64h2v2h-13v-2h2a1 1 0 0 0 .769-1.64l-5-6a1.036 1.036 0 0 0 -1.538 0l-5 6a1 1 0 0 0 .769 1.64h2v2h-1a3 3 0 0 0 -3 3v37h-3a1 1 0 0 0 -1 1v4a5.006 5.006 0 0 0 5 5h50a5.006 5.006 0 0 0 5-5v-4a1 1 0 0 0 -1-1zm-10-47.438 2.865 3.438h-.865a1 1 0 0 0 -1 1v9h-2v-9a1 1 0 0 0 -1-1h-.865zm-19 0 2.865 3.438h-.865a1 1 0 0 0 -1 1v9h-2v-9a1 1 0 0 0 -1-1h-.865zm-19 0 2.865 3.438h-.865a1 1 0 0 0 -1 1v9h-2v-9a1 1 0 0 0 -1-1h-.865zm-5 10.438a1 1 0 0 1 1-1h1v5a1 1 0 0 0 1 1h4a1 1 0 0 0 1-1v-5h13v5a1 1 0 0 0 1 1h4a1 1 0 0 0 1-1v-5h13v5a1 1 0 0 0 1 1h4a1 1 0 0 0 1-1v-5h1a1 1 0 0 1 1 1v37h-14a1 1 0 0 0 -1 1v2a1 1 0 0 1 -1 1h-16a1 1 0 0 1 -1-1v-2a1 1 0 0 0 -1-1h-14zm52 42a3 3 0 0 1 -3 3h-50a3 3 0 0 1 -3-3v-3h17v1a3 3 0 0 0 3 3h16a3 3 0 0 0 3-3v-1h17z" fill="#57a4ff"/><path d="m32 42a10.01 10.01 0 1 0 -6.913-2.78 9.914 9.914 0 0 0 6.913 2.78zm1.429-15.131a7.86 7.86 0 0 1 -2.858 0c.476-1.89 1.129-2.869 1.429-2.869s.953.979 1.429 2.869zm1.331-2.369a7.864 7.864 0 0 1 1.889 1 7.869 7.869 0 0 1 -1.3.762 12.105 12.105 0 0 0 -.589-1.762zm5.171 8.5a7.908 7.908 0 0 1 -1.787 4.114 9.883 9.883 0 0 0 -2.4-1.392 25.659 25.659 0 0 0 .237-2.722zm-9.36 4.131a7.86 7.86 0 0 1 2.858 0c-.476 1.89-1.124 2.869-1.429 2.869s-.953-.979-1.429-2.869zm-1.331 2.369a7.864 7.864 0 0 1 -1.889-1 7.869 7.869 0 0 1 1.3-.762 12.105 12.105 0 0 0 .589 1.762zm6.1-1.766a7.869 7.869 0 0 1 1.3.762 7.845 7.845 0 0 1 -1.889 1 12.105 12.105 0 0 0 .593-1.758zm-1.54-2.568a9.82 9.82 0 0 0 -3.6 0c-.088-.659-.153-1.377-.183-2.166h3.962c-.028.789-.093 1.507-.179 2.166zm-3.781-4.166c.03-.789.1-1.507.183-2.166a9.82 9.82 0 0 0 3.6 0c.088.659.153 1.377.183 2.166zm-1.363-4.738a7.869 7.869 0 0 1 -1.3-.762 7.845 7.845 0 0 1 1.889-1 12.105 12.105 0 0 0 -.589 1.762zm-.4 2.016a25.659 25.659 0 0 0 -.237 2.722h-3.95a7.908 7.908 0 0 1 1.787-4.114 9.883 9.883 0 0 0 2.403 1.392zm-.237 4.722a25.659 25.659 0 0 0 .24 2.722 9.858 9.858 0 0 0 -2.4 1.392 7.894 7.894 0 0 1 -1.79-4.114zm11.912-2h-3.95a25.659 25.659 0 0 0 -.24-2.722 9.858 9.858 0 0 0 2.4-1.392 7.894 7.894 0 0 1 1.79 4.114z" fill="#57a4ff"/></g></svg>