<svg id="Layer_1" height="512" viewBox="0 0 64 64" width="512" xmlns="http://www.w3.org/2000/svg" xmlns:xlink="http://www.w3.org/1999/xlink"><linearGradient id="linear-gradient" gradientUnits="userSpaceOnUse" x1="7.711" x2="46.163" y1="2.592" y2="69.192"><stop offset=".196" stop-color="#34c1e2"/><stop offset=".86" stop-color="#ce5b8a"/></linearGradient><linearGradient id="linear-gradient-2" x1="9.726" x2="48.178" xlink:href="#linear-gradient" y1="3.76" y2="70.359"/><linearGradient id="linear-gradient-3" x1="17.306" x2="56.907" xlink:href="#linear-gradient" y1="-4.744" y2="63.847"/><linearGradient id="linear-gradient-4" x1="17.973" x2="51.11" xlink:href="#linear-gradient" y1="-2.297" y2="55.097"/><linearGradient id="linear-gradient-5" x1="-.887" x2="40.116" xlink:href="#linear-gradient" y1="8.358" y2="79.378"/><linearGradient id="linear-gradient-6" x1="15.234" x2="56.238" xlink:href="#linear-gradient" y1="-7.359" y2="63.661"/><path d="m28.062 33.384-6.558 3.748c-.312.178-.504.51-.504.868v6c0 .553.447 1 1 1s1-.447 1-1v-5.42l5.311-3.035c.606 1.441 2.03 2.455 3.689 2.455 2.206 0 4-1.794 4-4s-1.794-4-4-4c-1.995 0-3.639 1.472-3.938 3.384zm5.938.616c0 1.103-.897 2-2 2s-2-.897-2-2 .897-2 2-2 2 .897 2 2z" fill="url(#linear-gradient)"/><path d="m32 49c-2.206 0-4 1.794-4 4s1.794 4 4 4c1.995 0 3.639-1.472 3.938-3.384l6.558-3.748c.312-.178.504-.51.504-.868v-6c0-.553-.447-1-1-1s-1 .447-1 1v5.42l-5.311 3.035c-.606-1.441-2.03-2.455-3.689-2.455zm0 6c-1.103 0-2-.897-2-2s.897-2 2-2 2 .897 2 2-.897 2-2 2z" fill="url(#linear-gradient-2)"/><path d="m63 12c0-2.757-2.243-5-5-5s-5 2.243-5 5c0 .34.035.665.097.973l-2.534 1.521-1.58-8.674c-.062-.341-.296-.625-.618-.751-.322-.128-.688-.077-.965.131l-8.114 6.086-3.167-3.456c.567-.823.881-1.814.881-2.83 0-2.757-2.243-5-5-5s-5 2.243-5 5c0 1.016.315 2.006.881 2.83l-3.168 3.456-8.114-6.086c-.277-.208-.643-.259-.965-.131-.322.126-.557.41-.618.751l-1.58 8.674-2.534-1.521c.063-.312.098-.636.098-.973 0-2.757-2.243-5-5-5s-5 2.243-5 5c0 2.476 1.813 4.522 4.179 4.917l3.619 16.286c-.604.191-1.164.508-1.625.97-.757.756-1.173 1.761-1.173 2.827 0 2.206 1.794 4 4 4h4v12c0 .354.187.683.493.862l17 10c.156.092.332.138.507.138s.351-.046.507-.138l17-10c.306-.18.493-.508.493-.862v-12h4c2.206 0 4-1.794 4-4 0-1.066-.416-2.071-1.173-2.827-.461-.462-1.021-.779-1.625-.97l3.619-16.286c2.366-.395 4.179-2.441 4.179-4.917zm-13.727 21-16.766-9.862c-.312-.184-.701-.184-1.014 0l-16.766 9.862h-3.925l-3.592-16.164c1.187-.299 2.22-1.018 2.894-2.009l8.381 5.03c.518.328 1.056.031 1.251-.182l9.586-10.459c.791.506 1.712.783 2.677.783s1.888-.278 2.677-.782l9.585 10.458c.498.476 1.092.277 1.251.182l8.387-5.033c.682.998 1.711 1.714 2.889 2.011l-3.592 16.164h-3.925zm8.727-24c1.654 0 3 1.346 3 3s-1.346 3-3 3c-1.239 0-2.357-.771-2.802-1.968-.13-.299-.198-.655-.198-1.032 0-1.654 1.346-3 3-3zm-10.694-1.229 1.426 7.823-3.546 2.129-4.542-4.956zm-15.306-5.771c1.654 0 3 1.346 3 3 0 .82-.32 1.58-.912 2.148-1.113 1.098-3.062 1.098-4.176 0l-.009-.009c-.583-.56-.903-1.319-.903-2.14 0-1.654 1.346-3 3-3zm-15.306 5.771 6.662 4.996-4.542 4.956-3.546-2.129zm-13.694 4.229c0-1.654 1.346-3 3-3s3 1.346 3 3c0 .377-.068.733-.218 1.082-.425 1.147-1.543 1.918-2.782 1.918-1.654 0-3-1.346-3-3zm7 27c-1.103 0-2-.897-2-2 0-.532.208-1.034.587-1.413s.881-.587 1.413-.587h4v4zm38 13.428-16 9.412-16-9.412v-17.855l16-9.412 16 9.412zm8-15.428c0 1.103-.897 2-2 2h-4v-4h4c.532 0 1.034.208 1.413.587s.587.881.587 1.413z" fill="url(#linear-gradient-3)"/><path d="m32.555 17.168c-.336-.225-.773-.225-1.109 0l-6 4c-.46.307-.584.927-.277 1.387.305.459.925.582 1.387.277l5.445-3.63 5.445 3.63c.171.113.875.418 1.387-.277.328-.445.183-1.08-.277-1.387l-6-4z" fill="url(#linear-gradient-4)"/><circle cx="22" cy="48" fill="url(#linear-gradient-5)" r="1"/><circle cx="42" cy="39" fill="url(#linear-gradient-6)" r="1"/></svg>