
<svg height="512" viewBox="0 0 64 64" width="512" xmlns="http://www.w3.org/2000/svg" xmlns:xlink="http://www.w3.org/1999/xlink"><linearGradient id="linear-gradient" gradientUnits="userSpaceOnUse" x1="3.25" x2="60.75" y1="32" y2="32"><stop offset="0" stop-color="#5bb4f6"/><stop offset=".61" stop-color="#2191e5"/><stop offset="1" stop-color="#007edb"/></linearGradient><g id="Layer_11" data-name="Layer 11"><circle cx="32" cy="32" fill="url(#linear-gradient)" r="28.75"/><path d="m47.59 22h-6.59a.76.76 0 0 0 -.75.75v6.59a.75.75 0 0 0 .75.75h2.55v4.61a1.25 1.25 0 0 1 -1.25 1.25h-9.55v-22.14l3.88 3.88a.74.74 0 0 0 .53.21.77.77 0 0 0 .53-.21.77.77 0 0 0 0-1.07l-5.16-5.15a.78.78 0 0 0 -.24-.16.73.73 0 0 0 -.58 0 .78.78 0 0 0 -.24.16l-5.16 5.15a.76.76 0 0 0 1.07 1.07l3.87-3.88v22.12h-9.55a1.25 1.25 0 0 1 -1.25-1.25v-4.68a4 4 0 1 0 -1.45 0v4.68a2.76 2.76 0 0 0 2.75 2.75h9.55v5.78a4.81 4.81 0 1 0 1.5 0v-5.78h9.5a2.76 2.76 0 0 0 2.75-2.75v-4.61h2.54a.74.74 0 0 0 .75-.75v-6.59a.75.75 0 0 0 -.75-.73zm-30.43 4a2.55 2.55 0 1 1 2.54 2.54 2.55 2.55 0 0 1 -2.54-2.54zm18.15 21.94a3.31 3.31 0 1 1 -3.31-3.3 3.3 3.3 0 0 1 3.31 3.3zm11.53-19.37h-5.09v-5.09h5.09z" fill="#fff"/></g></svg>